<svg fill="none" height="16" viewBox="0 0 16 16" width="16" xmlns="http://www.w3.org/2000/svg">
    <g clip-path="url(#clip0_2067_83)">
        <path
            d="M9.52539 4.86719L9.0957 5.29688C9.00977 5.4043 9.00977 5.55469 9.11719 5.66211L10.8359 7.31641H3.44531C3.29492 7.31641 3.1875 7.44531 3.1875 7.57422V8.17578C3.1875 8.32617 3.29492 8.43359 3.44531 8.43359H10.8359L9.11719 10.1094C9.00977 10.2168 9.00977 10.3672 9.0957 10.4746L9.52539 10.9043C9.63281 10.9902 9.7832 10.9902 9.89062 10.9043L12.7266 8.06836C12.8125 7.96094 12.8125 7.81055 12.7266 7.70312L9.89062 4.86719C9.7832 4.78125 9.63281 4.78125 9.52539 4.86719Z"
            fill="#101825" />
    </g>
    <defs>
        <clipPath id="clip0_2067_83">
            <rect fill="white" height="16" width="16" />
        </clipPath>
    </defs>
</svg>
