<svg fill="none" height="64" viewBox="0 0 64 64" width="64" xmlns="http://www.w3.org/2000/svg">
    <circle cx="32" cy="32" fill="white" r="32" />
    <path clip-rule="evenodd" d="M43.0293 23.96C42.9393 23.8671 42.8323 23.7933 42.7146 23.743C42.5969 23.6927 42.4707 23.6667 42.3433 23.6667C42.2158 23.6667 42.0897 23.6927 41.9719 23.743C41.8542 23.7933 41.7473 23.8671 41.6572 23.96L28.1212 37.92L22.3418 31.96C22.2524 31.8645 22.1454 31.7883 22.0271 31.7359C21.9088 31.6835 21.7815 31.6559 21.6528 31.6548C21.524 31.6536 21.3963 31.6789 21.2771 31.7292C21.158 31.7795 21.0497 31.8537 20.9587 31.9476C20.8676 32.0415 20.7956 32.1532 20.7468 32.2761C20.6981 32.399 20.6736 32.5307 20.6747 32.6634C20.6758 32.7962 20.7025 32.9274 20.7534 33.0494C20.8042 33.1714 20.8781 33.2818 20.9707 33.374L27.4347 40.041C27.6168 40.2283 27.8635 40.3335 28.1207 40.3335C28.3779 40.3335 28.6247 40.2283 28.8068 40.041L43.0293 25.374C43.2111 25.1865 43.3133 24.9322 43.3133 24.667C43.3133 24.4019 43.2111 24.1476 43.0293 23.96Z"
        fill="#0BD885"
        fill-rule="evenodd" />
</svg>
