<svg fill="none" height="28" viewBox="0 0 28 28" width="28" xmlns="http://www.w3.org/2000/svg">
    <rect fill="#F5F5FA" height="28" rx="14" width="28" />
    <g clip-path="url(#clip0_1902_937)">
        <path
            d="M15.2852 13.75L18.2383 10.8242C18.4023 10.6602 18.4023 10.3594 18.2383 10.1953L17.5547 9.51172C17.3906 9.34766 17.0898 9.34766 16.9258 9.51172L14 12.4648L11.0469 9.51172C10.8828 9.34766 10.582 9.34766 10.418 9.51172L9.73438 10.1953C9.57031 10.3594 9.57031 10.6602 9.73438 10.8242L12.6875 13.75L9.73438 16.7031C9.57031 16.8672 9.57031 17.168 9.73438 17.332L10.418 18.0156C10.582 18.1797 10.8828 18.1797 11.0469 18.0156L14 15.0625L16.9258 18.0156C17.0898 18.1797 17.3906 18.1797 17.5547 18.0156L18.2383 17.332C18.4023 17.168 18.4023 16.8672 18.2383 16.7031L15.2852 13.75Z"
            fill="#384357" />
    </g>
    <defs>
        <clipPath id="clip0_1902_937">
            <rect fill="white" height="20" transform="translate(4 4)" width="20" />
        </clipPath>
    </defs>
</svg>
