<svg fill="none" height="16" viewBox="0 0 17 16" width="17" xmlns="http://www.w3.org/2000/svg">
    <g clip-path="url(#clip0_1863_43)">
        <path
            d="M8.5 2.54688C5.55664 2.54688 3.17188 4.93164 3.17188 7.875C3.17188 10.8184 5.55664 13.2031 8.5 13.2031C11.4434 13.2031 13.8281 10.8184 13.8281 7.875C13.8281 4.93164 11.4434 2.54688 8.5 2.54688ZM10.4766 9.27148L10.0469 9.80859C9.98242 9.89453 9.89648 9.95898 9.76758 9.95898C9.70312 9.95898 9.61719 9.91602 9.57422 9.87305L8.13477 8.79883C7.91992 8.64844 7.8125 8.41211 7.8125 8.13281V4.78125C7.8125 4.60938 7.96289 4.4375 8.15625 4.4375H8.84375C9.01562 4.4375 9.1875 4.60938 9.1875 4.78125V7.875L10.4336 8.79883C10.498 8.86328 10.5625 8.94922 10.5625 9.05664C10.5625 9.14258 10.5195 9.22852 10.4766 9.27148Z"
            fill="#384357" />
    </g>
    <defs>
        <clipPath id="clip0_1863_43">
            <rect fill="white" height="16" transform="translate(0.5)" width="16" />
        </clipPath>
    </defs>
</svg>
