<svg fill="none" height="16" viewBox="0 0 17 16" width="17" xmlns="http://www.w3.org/2000/svg">
    <g clip-path="url(#clip0_1863_31)">
        <path
            d="M3.6875 12.3438C3.6875 12.9238 4.13867 13.375 4.71875 13.375H12.2812C12.8398 13.375 13.3125 12.9238 13.3125 12.3438V6.5H3.6875V12.3438ZM5.0625 8.21875C5.0625 8.04688 5.21289 7.875 5.40625 7.875H7.46875C7.64062 7.875 7.8125 8.04688 7.8125 8.21875V10.2812C7.8125 10.4746 7.64062 10.625 7.46875 10.625H5.40625C5.21289 10.625 5.0625 10.4746 5.0625 10.2812V8.21875ZM12.2812 3.75H11.25V2.71875C11.25 2.54688 11.0781 2.375 10.9062 2.375H10.2188C10.0254 2.375 9.875 2.54688 9.875 2.71875V3.75H7.125V2.71875C7.125 2.54688 6.95312 2.375 6.78125 2.375H6.09375C5.90039 2.375 5.75 2.54688 5.75 2.71875V3.75H4.71875C4.13867 3.75 3.6875 4.22266 3.6875 4.78125V5.8125H13.3125V4.78125C13.3125 4.22266 12.8398 3.75 12.2812 3.75Z"
            fill="#384357" />
    </g>
    <defs>
        <clipPath id="clip0_1863_31">
            <rect fill="white" height="16" transform="translate(0.5)" width="16" />
        </clipPath>
    </defs>
</svg>
