<svg fill="none" height="30" viewBox="0 0 30 30" width="30" xmlns="http://www.w3.org/2000/svg">
    <rect fill="#69D492" fill-opacity="0.12" height="30" rx="10" width="30" />
    <g clip-path="url(#clip0_2067_41)">
        <path
            d="M11.9375 17.8125H14.5625C14.7812 17.8125 15 17.6211 15 17.375V14.75C15 14.5312 14.7812 14.3125 14.5625 14.3125H11.9375C11.6914 14.3125 11.5 14.5312 11.5 14.75V17.375C11.5 17.6211 11.6914 17.8125 11.9375 17.8125ZM19.8125 9.5H18.5V8.1875C18.5 7.96875 18.2812 7.75 18.0625 7.75H17.1875C16.9414 7.75 16.75 7.96875 16.75 8.1875V9.5H13.25V8.1875C13.25 7.96875 13.0312 7.75 12.8125 7.75H11.9375C11.6914 7.75 11.5 7.96875 11.5 8.1875V9.5H10.1875C9.44922 9.5 8.875 10.1016 8.875 10.8125V20.4375C8.875 21.1758 9.44922 21.75 10.1875 21.75H19.8125C20.5234 21.75 21.125 21.1758 21.125 20.4375V10.8125C21.125 10.1016 20.5234 9.5 19.8125 9.5ZM19.8125 20.2734C19.8125 20.3828 19.7305 20.4375 19.6484 20.4375H10.3516C10.2422 20.4375 10.1875 20.3828 10.1875 20.2734V12.125H19.8125V20.2734Z"
            fill="#3BCF74" />
    </g>
    <defs>
        <clipPath id="clip0_2067_41">
            <rect fill="white" height="20" transform="translate(5 5)" width="20" />
        </clipPath>
    </defs>
</svg>
