<svg fill="none" height="20" viewBox="0 0 20 20" width="20" xmlns="http://www.w3.org/2000/svg">
    <g clip-path="url(#clip0_4969_6880)">
        <path
            d="M16.4805 4.30859L15.4414 3.26953C15.1133 2.94141 14.6484 2.75 14.2109 2.75C13.7734 2.75 13.3086 2.94141 12.9805 3.26953L10.9297 5.32031L10 6.25L3.32812 12.9219L3 16.0391C2.94531 16.4219 3.24609 16.75 3.62891 16.75C3.65625 16.75 3.68359 16.75 3.71094 16.75L6.82812 16.4219L13.5 9.75L14.4297 8.82031L16.4805 6.76953C17.1641 6.08594 17.1641 4.99219 16.4805 4.30859ZM6.22656 15.1641L4.39453 15.3555L4.58594 13.5234L10.9023 7.17969L11.75 6.33203L13.418 8L12.5703 8.84766L6.22656 15.1641ZM15.5508 5.83984L14.3477 7.07031L12.6797 5.40234L13.9102 4.19922C14.0195 4.08984 14.1562 4.0625 14.2109 4.0625C14.2656 4.0625 14.4023 4.08984 14.5117 4.19922L15.5508 5.23828C15.7148 5.40234 15.7148 5.67578 15.5508 5.83984Z"
            fill="#384357" />
    </g>
    <defs>
        <clipPath id="clip0_4969_6880">
            <rect fill="white" height="20" width="20" />
        </clipPath>
    </defs>
</svg>
