<svg fill="none" height="28" viewBox="0 0 28 28" width="28" xmlns="http://www.w3.org/2000/svg">
    <g clip-path="url(#clip0_4790_737)">
        <path
            d="M13.7031 9.9043L6.875 15.5449V21.5938C6.875 21.9277 7.13477 22.1875 7.46875 22.1875H11.625C11.9219 22.1875 12.1816 21.9277 12.1816 21.5938V18.0312C12.1816 17.7344 12.4785 17.4375 12.7754 17.4375H15.1504C15.4844 17.4375 15.7441 17.7344 15.7441 18.0312V21.5938C15.7441 21.9277 16.041 22.1875 16.3379 22.1875H20.5312C20.8281 22.1875 21.125 21.9277 21.125 21.5938V15.5078L14.2598 9.9043C14.1855 9.83008 14.0742 9.79297 14 9.79297C13.8887 9.79297 13.7773 9.83008 13.7031 9.9043ZM24.502 13.7266L15.1133 5.9707C14.8164 5.74805 14.4082 5.59961 14 5.59961C13.5547 5.59961 13.1465 5.74805 12.8496 5.9707L3.46094 13.7266C3.34961 13.8008 3.27539 13.9492 3.27539 14.0605C3.27539 14.1719 3.34961 14.2832 3.38672 14.3574L4.35156 15.5078C4.42578 15.6191 4.53711 15.6562 4.68555 15.6562C4.79688 15.6562 4.9082 15.6191 4.98242 15.5449L13.7031 8.38281C13.7773 8.30859 13.8887 8.27148 14 8.27148C14.0742 8.27148 14.1855 8.30859 14.2598 8.38281L22.9805 15.5449C23.0547 15.6191 23.166 15.6562 23.2773 15.6562C23.4258 15.6562 23.5371 15.6191 23.6113 15.5078L24.5762 14.3574C24.6504 14.2832 24.6875 14.1719 24.6875 14.0605C24.6875 13.9492 24.6133 13.8008 24.502 13.7266Z"
            fill="#AAB0BA" />
    </g>
    <defs>
        <clipPath id="clip0_4790_737">
            <rect fill="white" height="28" width="28" />
        </clipPath>
    </defs>
</svg>
