<svg fill="none" height="28" viewBox="0 0 28 28" width="28" xmlns="http://www.w3.org/2000/svg">
    <g clip-path="url(#clip0_4793_1292)">
        <path
            d="M5.6875 21.5938C5.6875 22.5957 6.4668 23.375 7.46875 23.375H20.5312C21.4961 23.375 22.3125 22.5957 22.3125 21.5938V11.5H5.6875V21.5938ZM8.0625 14.4688C8.0625 14.1719 8.32227 13.875 8.65625 13.875H12.2188C12.5156 13.875 12.8125 14.1719 12.8125 14.4688V18.0312C12.8125 18.3652 12.5156 18.625 12.2188 18.625H8.65625C8.32227 18.625 8.0625 18.3652 8.0625 18.0312V14.4688ZM20.5312 6.75H18.75V4.96875C18.75 4.67188 18.4531 4.375 18.1562 4.375H16.9688C16.6348 4.375 16.375 4.67188 16.375 4.96875V6.75H11.625V4.96875C11.625 4.67188 11.3281 4.375 11.0312 4.375H9.84375C9.50977 4.375 9.25 4.67188 9.25 4.96875V6.75H7.46875C6.4668 6.75 5.6875 7.56641 5.6875 8.53125V10.3125H22.3125V8.53125C22.3125 7.56641 21.4961 6.75 20.5312 6.75Z"
            fill="#AAB0BA" />
    </g>
    <defs>
        <clipPath id="clip0_4793_1292">
            <rect fill="white" height="28" width="28" />
        </clipPath>
    </defs>
</svg>
