<svg fill="none" height="28" viewBox="0 0 28 28" width="28" xmlns="http://www.w3.org/2000/svg">
    <g clip-path="url(#clip0_4973_498)">
        <path
            d="M15.4844 5.5625C14.9648 5.5625 14.5938 5.9707 14.5938 6.45312V12.3906C14.5938 12.9102 14.9648 13.2812 15.4844 13.2812H22.6094C23.0918 13.2812 23.5 12.9102 23.5 12.3906V6.45312C23.5 5.9707 23.0918 5.5625 22.6094 5.5625H15.4844ZM12.5156 5.5625H5.39062C4.87109 5.5625 4.5 5.9707 4.5 6.45312V12.3906C4.5 12.9102 4.87109 13.2812 5.39062 13.2812H12.5156C12.998 13.2812 13.4062 12.9102 13.4062 12.3906V6.45312C13.4062 5.9707 12.998 5.5625 12.5156 5.5625ZM4.5 15.3594V21.2969C4.5 21.8164 4.87109 22.1875 5.39062 22.1875H12.5156C12.998 22.1875 13.4062 21.8164 13.4062 21.2969V15.3594C13.4062 14.877 12.998 14.4688 12.5156 14.4688H5.39062C4.87109 14.4688 4.5 14.877 4.5 15.3594ZM15.4844 22.1875H22.6094C23.0918 22.1875 23.5 21.8164 23.5 21.2969V15.3594C23.5 14.877 23.0918 14.4688 22.6094 14.4688H15.4844C14.9648 14.4688 14.5938 14.877 14.5938 15.3594V21.2969C14.5938 21.8164 14.9648 22.1875 15.4844 22.1875Z"
            fill="#3BCF74" />
    </g>
    <defs>
        <clipPath id="clip0_4973_498">
            <rect fill="white" height="28" width="28" />
        </clipPath>
    </defs>
</svg>
