<svg fill="none" height="56" viewBox="0 0 49 56" width="49" xmlns="http://www.w3.org/2000/svg">
    <path
        d="M34.0156 41.0156C34.5625 40.4688 34.5625 39.7031 34.0156 39.1562L28.1094 33.25L34.0156 27.4531C34.5625 26.9062 34.5625 26.0312 34.0156 25.5938L32.1562 23.7344C31.7188 23.1875 30.8438 23.1875 30.2969 23.7344L24.5 29.5312L18.5938 23.7344C18.0469 23.1875 17.2812 23.1875 16.7344 23.7344L14.875 25.5938C14.3281 26.0312 14.3281 26.9062 14.875 27.4531L20.7812 33.25L14.875 39.1562C14.3281 39.7031 14.3281 40.4688 14.875 41.0156L16.7344 42.875C17.2812 43.4219 18.0469 43.4219 18.5938 42.875L24.5 36.9688L30.2969 42.875C30.8438 43.4219 31.7188 43.4219 32.1562 42.875L34.0156 41.0156ZM49 12.25C49 9.40625 46.5938 7 43.75 7H38.5V1.3125C38.5 0.65625 37.8438 0 37.1875 0H32.8125C32.0469 0 31.5 0.65625 31.5 1.3125V7H17.5V1.3125C17.5 0.65625 16.8438 0 16.1875 0H11.8125C11.0469 0 10.5 0.65625 10.5 1.3125V7H5.25C2.29688 7 0 9.40625 0 12.25V50.75C0 53.7031 2.29688 56 5.25 56H43.75C46.5938 56 49 53.7031 49 50.75V12.25ZM43.75 50.0938C43.75 50.5312 43.4219 50.75 43.0938 50.75H5.90625C5.46875 50.75 5.25 50.5312 5.25 50.0938V17.5H43.75V50.0938Z"
        fill="#E5E5EA" />
</svg>
