<svg fill="none" height="20" viewBox="0 0 20 20" width="20" xmlns="http://www.w3.org/2000/svg">
    <g clip-path="url(#clip0_1519_162)">
        <path
            d="M10 6.6875C9.69922 6.71484 9.39844 6.74219 9.125 6.82422C9.26172 7.04297 9.31641 7.31641 9.34375 7.5625C9.34375 8.41016 8.63281 9.09375 7.8125 9.09375C7.53906 9.09375 7.26562 9.03906 7.07422 8.90234C6.99219 9.17578 6.9375 9.44922 6.9375 9.75C6.9375 11.4453 8.30469 12.8125 10 12.8125C11.6953 12.8125 13.0625 11.4453 13.0625 9.75C13.0625 8.08203 11.6953 6.71484 10 6.71484V6.6875ZM17.7656 9.36719C16.2891 6.46875 13.3359 4.5 10 4.5C6.63672 4.5 3.68359 6.46875 2.20703 9.36719C2.15234 9.47656 2.125 9.61328 2.125 9.75C2.125 9.91406 2.15234 10.0508 2.20703 10.1602C3.68359 13.0586 6.63672 15 10 15C13.3359 15 16.2891 13.0586 17.7656 10.1602C17.8203 10.0508 17.8477 9.91406 17.8477 9.77734C17.8477 9.61328 17.8203 9.47656 17.7656 9.36719ZM10 13.6875C7.29297 13.6875 4.80469 12.1836 3.49219 9.75C4.80469 7.31641 7.29297 5.8125 10 5.8125C12.6797 5.8125 15.168 7.31641 16.4805 9.75C15.168 12.1836 12.6797 13.6875 10 13.6875Z"
            fill="#AAB0BA" />
    </g>
    <defs>
        <clipPath id="clip0_1519_162">
            <rect fill="white" height="20" width="20" />
        </clipPath>
    </defs>
</svg>
