<svg fill="none" height="20" viewBox="0 0 20 20" width="20" xmlns="http://www.w3.org/2000/svg">
    <g clip-path="url(#clip0_1519_86)">
        <path
            d="M18.5859 15.6289L2.23438 2.85938C2.15234 2.80469 2.04297 2.77734 1.96094 2.77734C1.79688 2.77734 1.6875 2.83203 1.60547 2.91406L1.33203 3.26953C1.27734 3.35156 1.22266 3.43359 1.22266 3.54297C1.22266 3.67969 1.30469 3.81641 1.41406 3.87109L17.7656 16.668C17.8203 16.7227 17.9297 16.75 18.0117 16.75C18.1758 16.75 18.2852 16.6953 18.3672 16.5859L18.6406 16.2578C18.6953 16.1758 18.75 16.0938 18.75 15.9844C18.75 15.8477 18.668 15.7109 18.5859 15.6289ZM9.34375 6.76953L13.0352 9.64062C12.9805 8 11.6406 6.6875 10 6.6875C9.78125 6.71484 9.5625 6.71484 9.34375 6.76953ZM10.6289 12.7578L6.9375 9.88672C6.99219 11.5273 8.33203 12.8125 10 12.8125C10.1914 12.8125 10.4102 12.8125 10.6289 12.7578ZM10 5.8125C12.6797 5.8125 15.168 7.31641 16.4805 9.75C16.1523 10.3789 15.7695 10.9258 15.2773 11.418L16.3164 12.2109C16.8906 11.6094 17.3828 10.9258 17.7656 10.1602C17.8203 10.0508 17.875 9.91406 17.875 9.77734C17.875 9.61328 17.8203 9.47656 17.7656 9.36719C16.2891 6.46875 13.3359 4.5 10 4.5C8.98828 4.5 8.03125 4.69141 7.12891 5.01953L8.38672 6.03125C8.90625 5.89453 9.45312 5.8125 10 5.8125ZM10 13.6875C7.29297 13.6875 4.80469 12.1836 3.49219 9.75C3.82031 9.14844 4.20312 8.60156 4.69531 8.10938L3.65625 7.31641C3.08203 7.91797 2.58984 8.60156 2.20703 9.36719C2.15234 9.47656 2.125 9.61328 2.125 9.75C2.125 9.91406 2.15234 10.0508 2.20703 10.1602C3.68359 13.0586 6.63672 15 10 15C10.9844 15 11.9414 14.8086 12.8438 14.5078L11.5859 13.4961C11.0664 13.6328 10.5195 13.6875 10 13.6875Z"
            fill="#AAB0BA" />
    </g>
    <defs>
        <clipPath id="clip0_1519_86">
            <rect fill="white" height="20" width="20" />
        </clipPath>
    </defs>
</svg>
