<svg fill="none" height="28" viewBox="0 0 28 28" width="28" xmlns="http://www.w3.org/2000/svg">
    <g clip-path="url(#clip0_4790_4422)">
        <path
            d="M9.25 13.875C11.5137 13.875 13.4062 12.0195 13.4062 9.71875C13.4062 7.45508 11.5137 5.5625 9.25 5.5625C6.94922 5.5625 5.09375 7.45508 5.09375 9.71875C5.09375 12.0195 6.94922 13.875 9.25 13.875ZM12.0703 15.0625H11.7734C10.9941 15.4336 10.1406 15.6562 9.25 15.6562C8.32227 15.6562 7.46875 15.4336 6.68945 15.0625H6.39258C4.01758 15.0625 2.125 16.9922 2.125 19.3672V20.4062C2.125 21.4082 2.9043 22.1875 3.90625 22.1875H14.5938C15.5586 22.1875 16.375 21.4082 16.375 20.4062V19.3672C16.375 16.9922 14.4453 15.0625 12.0703 15.0625ZM19.9375 13.875C21.9043 13.875 23.5 12.2793 23.5 10.3125C23.5 8.3457 21.9043 6.75 19.9375 6.75C17.9707 6.75 16.375 8.3457 16.375 10.3125C16.375 12.2793 17.9707 13.875 19.9375 13.875ZM21.7188 15.0625H21.5703C21.0508 15.248 20.4941 15.3594 19.9375 15.3594C19.3438 15.3594 18.7871 15.248 18.2676 15.0625H18.1562C17.377 15.0625 16.6719 15.2852 16.0781 15.6562C16.9688 16.6211 17.5625 17.9199 17.5625 19.3672V20.7773C17.5625 20.8516 17.5254 20.9258 17.5254 21H24.0938C25.0586 21 25.875 20.2207 25.875 19.2188C25.875 16.9551 23.9824 15.0625 21.7188 15.0625Z"
            fill="#AAB0BA" />
    </g>
    <defs>
        <clipPath id="clip0_4790_4422">
            <rect fill="white" height="28" width="28" />
        </clipPath>
    </defs>
</svg>
