<svg fill="none" height="20" viewBox="0 0 20 20" width="20" xmlns="http://www.w3.org/2000/svg">
    <g clip-path="url(#clip0_2067_6)">
        <path
            d="M14.375 9.75C15.8242 9.75 17 8.57422 17 7.125C17 5.67578 15.8242 4.5 14.375 4.5C12.9258 4.5 11.75 5.67578 11.75 7.125C11.75 8.57422 12.9258 9.75 14.375 9.75ZM14.375 5.8125C15.0859 5.8125 15.6875 6.41406 15.6875 7.125C15.6875 7.86328 15.0859 8.4375 14.375 8.4375C13.6367 8.4375 13.0625 7.86328 13.0625 7.125C13.0625 6.41406 13.6367 5.8125 14.375 5.8125ZM8.6875 10.2969C8.35938 10.2969 8.03125 10.3516 7.70312 10.4609C7.32031 10.5703 6.91016 10.625 6.47266 10.625C6.0625 10.625 5.65234 10.5703 5.26953 10.4609C4.94141 10.3516 4.61328 10.2969 4.28516 10.2969C3.30078 10.2969 2.34375 10.7617 1.76953 11.582C1.44141 12.1016 1.25 12.7031 1.25 13.3594V14.5625C1.25 15.3008 1.82422 15.875 2.5625 15.875H10.4375C11.1484 15.875 11.75 15.3008 11.75 14.5625V13.3594C11.75 12.7031 11.5312 12.1016 11.2031 11.582C10.6289 10.7617 9.67188 10.2969 8.6875 10.2969ZM10.4375 14.5625H2.5625V13.3594C2.5625 12.5664 3.05469 11.8828 3.76562 11.6367C4.03906 11.5273 4.33984 11.5273 4.64062 11.6367C5.24219 11.8281 5.87109 11.9375 6.5 11.9375C7.12891 11.9375 7.73047 11.8281 8.35938 11.6367C8.63281 11.5273 8.93359 11.5273 9.23438 11.6367C9.91797 11.8828 10.4375 12.5664 10.4375 13.3594V14.5625ZM6.5 9.75C8.16797 9.75 9.5625 8.38281 9.5625 6.6875C9.5625 5.01953 8.16797 3.625 6.5 3.625C4.80469 3.625 3.4375 5.01953 3.4375 6.6875C3.4375 8.38281 4.80469 9.75 6.5 9.75ZM6.5 4.9375C7.45703 4.9375 8.25 5.73047 8.25 6.6875C8.25 7.67188 7.45703 8.4375 6.5 8.4375C5.51562 8.4375 4.75 7.67188 4.75 6.6875C4.75 5.73047 5.51562 4.9375 6.5 4.9375ZM18.2852 11.4453C17.8203 10.7344 17.0273 10.3516 16.1797 10.3516C15.4414 10.3516 15.25 10.625 14.375 10.625C13.5 10.625 13.3086 10.3516 12.543 10.3516C12.1602 10.3516 11.832 10.4336 11.5039 10.5977C11.6406 10.7344 11.8047 10.9258 11.9414 11.0898C12.0508 11.2812 12.1602 11.5 12.2695 11.6914C12.3516 11.6914 12.4336 11.6641 12.543 11.6641C13.0078 11.6641 13.3359 11.9375 14.375 11.9375C15.3867 11.9375 15.7148 11.6641 16.1797 11.6641C16.6172 11.6641 17 11.8555 17.1914 12.1562C17.3555 12.375 17.4375 12.6211 17.4375 12.8945V13.6875H12.625V14.5625C12.625 14.7266 12.5977 14.8633 12.5703 15H17.6562C18.2578 15 18.75 14.5352 18.75 13.9062V12.8945C18.75 12.3477 18.5859 11.8555 18.2852 11.4453Z"
            fill="#101825" />
    </g>
    <defs>
        <clipPath id="clip0_2067_6">
            <rect fill="white" height="20" width="20" />
        </clipPath>
    </defs>
</svg>
