<svg fill="none" height="29" viewBox="0 0 30 29" width="30" xmlns="http://www.w3.org/2000/svg">
    <path
        d="M7.04175 24.8014C7.04175 21.8856 9.09268 19.4019 11.88 18.9424L12.131 18.901C14.3629 18.533 16.6372 18.533 18.8691 18.901L19.1202 18.9424C21.9075 19.4019 23.9584 21.8856 23.9584 24.8014C23.9584 26.0617 22.9694 27.0834 21.7494 27.0834H9.25074C8.03075 27.0834 7.04175 26.0617 7.04175 24.8014Z"
        stroke="#016AFB" stroke-width="1.8125" />
    <path
        d="M20.434 10.0912C20.434 12.7189 18.225 14.849 15.5 14.849C12.775 14.849 10.566 12.7189 10.566 10.0912C10.566 7.46352 12.775 5.33337 15.5 5.33337C18.225 5.33337 20.434 7.46352 20.434 10.0912Z"
        stroke="#016AFB" stroke-width="1.8125" />
</svg>
