<svg width="50" height="51" viewBox="0 0 50 51" fill="none" xmlns="http://www.w3.org/2000/svg">
<path d="M20.8332 33.8334H10.4165V44.25" stroke="#016AFB" stroke-width="2.5" stroke-linecap="round" stroke-linejoin="round"/>
<path d="M40.4533 31.7434C39.2853 34.6345 37.3295 37.14 34.8085 38.975C32.2874 40.8101 29.3021 41.901 26.1919 42.124C23.0817 42.3469 19.9713 41.6929 17.2143 40.2362C14.4573 38.7795 12.1642 36.5786 10.5957 33.8836" stroke="#016AFB" stroke-width="2.5" stroke-linecap="round" stroke-linejoin="round"/>
<path d="M29.1665 17.1667H39.5832V6.75" stroke="#016AFB" stroke-width="2.5" stroke-linecap="round" stroke-linejoin="round"/>
<path d="M9.54688 19.2565C10.715 16.3654 12.6707 13.8599 15.1918 12.0249C17.7128 10.1899 20.6981 9.09892 23.8083 8.87597C26.9185 8.65303 30.0289 9.30707 32.7859 10.7638C35.5429 12.2204 37.836 14.4214 39.4045 17.1163" stroke="#016AFB" stroke-width="2.5" stroke-linecap="round" stroke-linejoin="round"/>
</svg>
