<svg fill="none" height="30" viewBox="0 0 30 30" width="30" xmlns="http://www.w3.org/2000/svg">
    <rect fill="#69D492" fill-opacity="0.12" height="30" rx="10" width="30" />
    <g clip-path="url(#clip0_2067_92)">
        <path
            d="M18.5 11.7148L20.0312 10.1836L19.5664 9.71875L18.0352 11.25L16.6133 9.82812C16.4492 9.66406 16.1484 9.66406 15.9844 9.82812L15.2188 10.5938C14.7266 10.457 14.207 10.375 13.6875 10.375C10.543 10.375 8 12.9453 8 16.0625C8 19.207 10.543 21.75 13.6875 21.75C16.8047 21.75 19.375 19.207 19.375 16.0625C19.375 15.543 19.293 15.0234 19.1562 14.5312L19.9219 13.7656C20.0859 13.6016 20.0859 13.3008 19.9219 13.1367L18.5 11.7148ZM17.6797 14.1484C17.8984 14.9141 18.0625 15.3516 18.0625 16.0625C18.0625 18.4961 16.0938 20.4375 13.6875 20.4375C11.2539 20.4375 9.3125 18.4961 9.3125 16.0625C9.3125 13.6562 11.2539 11.6875 13.6875 11.6875C14.3984 11.6875 14.8086 11.8516 15.6016 12.0703L16.3125 11.3594L18.3906 13.4375L17.6797 14.1484ZM22 9.71875C22 9.55469 21.8359 9.39062 21.6719 9.39062H21.0156C20.8242 9.39062 20.6875 9.55469 20.6875 9.71875C20.6875 9.91016 20.8242 10.0469 21.0156 10.0469H21.6719C21.8359 10.0469 22 9.91016 22 9.71875ZM20.3594 8.07812C20.3594 7.91406 20.1953 7.75 20.0312 7.75C19.8398 7.75 19.7031 7.91406 19.7031 8.07812V8.73438C19.7031 8.92578 19.8398 9.0625 20.0312 9.0625C20.1953 9.0625 20.3594 8.92578 20.3594 8.73438V8.07812ZM20.4961 9.25391C20.6055 9.39062 20.8242 9.39062 20.9609 9.25391L21.4258 8.78906C21.5352 8.67969 21.5352 8.46094 21.4258 8.32422C21.2891 8.21484 21.0703 8.21484 20.9609 8.32422L20.4961 8.78906C20.3594 8.92578 20.3594 9.14453 20.4961 9.25391ZM18.6367 8.81641L19.1016 9.28125C19.2109 9.39062 19.4297 9.39062 19.5664 9.28125C19.6758 9.14453 19.6758 8.92578 19.5664 8.81641L19.1016 8.35156C18.9648 8.21484 18.7461 8.21484 18.6367 8.35156C18.5 8.46094 18.5 8.67969 18.6367 8.81641ZM21.3984 10.6484L20.9336 10.1836C20.8242 10.0742 20.6055 10.0742 20.4688 10.1836C20.3594 10.3203 20.3594 10.5391 20.4688 10.6484L20.9336 11.1133C21.0703 11.25 21.2891 11.25 21.3984 11.1133C21.5352 11.0039 21.5352 10.7852 21.3984 10.6484ZM13.9062 13.4375C13.9062 13.082 13.6055 12.7812 13.25 12.7812C11.6641 12.7812 10.4062 14.0664 10.4062 15.625C10.4062 16.0078 10.6797 16.2812 11.0625 16.2812C11.418 16.2812 11.7188 16.0078 11.7188 15.625C11.7188 14.8047 12.4023 14.0938 13.25 14.0938C13.6055 14.0938 13.9062 13.8203 13.9062 13.4375Z"
            fill="#3BCF74" />
    </g>
    <defs>
        <clipPath id="clip0_2067_92">
            <rect fill="white" height="20" transform="translate(5 5)" width="20" />
        </clipPath>
    </defs>
</svg>
