<svg fill="none" height="30" viewBox="0 0 30 30" width="30" xmlns="http://www.w3.org/2000/svg">
    <rect fill="#69D492" fill-opacity="0.12" height="30" rx="10" width="30" />
    <path
        d="M11.6667 9V10.3505H10.3333V13.0516C10.3333 14.5439 11.5267 15.7526 13 15.7526C14.4733 15.7526 15.6667 14.5439 15.6667 13.0516V10.3505H14.3333V9H16.3333C16.7013 9 17 9.30252 17 9.67526V13.0516C17 15.0591 15.5587 16.725 13.6667 17.0471V18.1161C13.6667 19.4213 14.7113 20.4795 16 20.4795C16.998 20.4795 17.85 19.8447 18.1833 18.9514C17.4853 18.636 17 17.927 17 17.1032C17 15.9842 17.8953 15.0774 19 15.0774C20.1047 15.0774 21 15.9842 21 17.1032C21 18.0289 20.3867 18.8095 19.5493 19.0513C19.14 20.6496 17.706 21.83 16 21.83C13.9747 21.83 12.3333 20.1675 12.3333 18.1161V17.0471C10.4413 16.7257 9 15.0591 9 13.0516V9.67526C9 9.30252 9.29867 9 9.66667 9H11.6667Z"
        fill="#3BCF74" />
</svg>
