<svg fill="none" height="30" viewBox="0 0 30 30" width="30" xmlns="http://www.w3.org/2000/svg">
    <rect fill="#69D492" fill-opacity="0.12" height="30" rx="10" width="30" />
    <g clip-path="url(#clip0_2067_78)">
        <path
            d="M15 7.96875C11.2539 7.96875 8.21875 11.0039 8.21875 14.75C8.21875 18.4961 11.2539 21.5312 15 21.5312C18.7461 21.5312 21.7812 18.4961 21.7812 14.75C21.7812 11.0039 18.7461 7.96875 15 7.96875ZM15 20.2188C11.9648 20.2188 9.53125 17.7852 9.53125 14.75C9.53125 11.7422 11.9648 9.28125 15 9.28125C18.0078 9.28125 20.4688 11.7422 20.4688 14.75C20.4688 17.7852 18.0078 20.2188 15 20.2188ZM16.668 17.375C16.832 17.4844 17.0234 17.457 17.1328 17.293L17.6523 16.6094C17.7617 16.4453 17.7344 16.2539 17.5703 16.1445L15.7656 14.8047V10.9219C15.7656 10.7578 15.6016 10.5938 15.4375 10.5938H14.5625C14.3711 10.5938 14.2344 10.7578 14.2344 10.9219V15.4336C14.2344 15.5156 14.2617 15.625 14.3438 15.6797L16.668 17.375Z"
            fill="#3BCF74" />
    </g>
    <defs>
        <clipPath id="clip0_2067_78">
            <rect fill="white" height="20" transform="translate(5 5)" width="20" />
        </clipPath>
    </defs>
</svg>
